<svg xmlns="http://www.w3.org/2000/svg" viewBox="0 0 1600 600" role="img" aria-label="Orthographic technical line drawing of a vacuum roll-off waste hauling truck">
  <g fill="none" stroke="#A85A2C" stroke-width="6" stroke-linecap="butt" stroke-linejoin="miter" vector-effect="non-scaling-stroke">
    <!-- Chassis and lower frame -->
    <path d="M42 456 H92 M288 456 H500 M560 456 H1020 M1160 456 H1376 M1488 456 H1558" />
    <path d="M266 420 H1420 L1462 468 H1534" />
    <path d="M488 420 V480 H560 V420" />
    <path d="M560 432 H1116 L1160 480 H1438" />
    <path d="M302 458 V530 H448 V458" />
    <path d="M572 466 V552 H820 V466" />
    <path d="M850 466 V552 H1110 V466" />
    <path d="M1284 470 H1364 M1298 500 H1350 M1324 470 V500" />
    <path d="M98 450 H278 V492 H98" />
    <path d="M304 500 H448 M318 500 V548 M348 500 V548 M378 500 V548 M408 500 V548 M438 500 V548" />

    <!-- Cab, hood, grille, and tractor details -->
    <path d="M46 458 V368 L86 356 L196 334 L252 344 L300 270 L350 214 H466 L500 282 V420 H278 L242 456 H46" />
    <path d="M70 372 L198 344 L246 350" />
    <path d="M258 348 L302 244 L350 218" />
    <path d="M304 250 H444 V378 H284 V320 L304 250" />
    <path d="M330 268 H422 V348 H320 L330 268" />
    <path d="M120 370 H214 V398 H120" />
    <path d="M78 416 H104 V458 H78" />
    <path d="M232 360 H252 V382 H232" />
    <path d="M356 360 V412 H384 V360" />
    <path d="M414 386 H432 V426 H414" />
    <path d="M466 250 H506 V420 H466" />
    <path d="M476 264 H494 M476 282 H494 M476 300 H494 M476 318 H494 M476 336 H494 M476 354 H494 M476 372 H494 M476 390 H494" />
    <path d="M452 204 V142 Q452 112 482 102" />
    <path d="M482 102 V250" />
    <path d="M452 242 H500" />
    <path d="M350 204 H432 M372 184 H412" />
    <path d="M280 244 H216 L240 220 H312" />
    <path d="M84 456 V504 H52 V456" />
    <path d="M510 364 H548 V430 H510" />
    <path d="M530 316 V364" />
    <path d="M534 316 H560 V420 H534" />
    <path d="M512 438 H548" />

    <!-- Front wheel and tractor service boxes -->
    <path d="M92 456 A108 108 0 0 1 308 456" />
    <path d="M116 456 A84 84 0 0 1 284 456" />
    <path d="M130 500 A72 72 0 1 0 274 500 A72 72 0 1 0 130 500" />
    <path d="M158 500 A44 44 0 1 0 246 500 A44 44 0 1 0 158 500" />
    <path d="M186 500 A16 16 0 1 0 218 500 A16 16 0 1 0 186 500" />
    <path d="M200 434 V456 M200 544 V566 M134 500 H156 M248 500 H270 M154 454 L170 470 M230 530 L246 546 M154 546 L170 530 M230 470 L246 454" />
    <path d="M548 500 A34 34 0 1 0 616 500 A34 34 0 1 0 548 500" />
    <path d="M502 470 H532 V540 H502" />

    <!-- Vacuum tank and equipment between tractor and roll-off body -->
    <path d="M548 240 H596" />
    <path d="M590 212 H662 Q708 212 722 256 V358 Q708 402 662 402 H590" />
    <path d="M590 212 V402" />
    <path d="M596 232 H658 Q696 232 704 264 V350 Q696 382 658 382 H596" />
    <path d="M608 182 H670 V214 H608" />
    <path d="M622 160 H656 V182 H622" />
    <path d="M528 250 H548 V330 H528" />
    <path d="M520 330 H560" />
    <path d="M520 262 H560" />
    <path d="M702 240 Q750 254 750 312 Q750 370 702 384" />
    <path d="M714 368 H762 V392 H714" />
    <path d="M740 392 V430 Q740 448 722 448 H694" />
    <path d="M660 402 V440" />
    <path d="M642 440 V490 Q642 512 660 526 Q678 512 678 490 V440" />
    <path d="M642 440 H678" />
    <path d="M590 420 H724" />
    <path d="M730 420 H778 V468 H730" />
    <path d="M758 420 V468" />

    <!-- Roll-off container / tank body -->
    <path d="M756 210 H1464 L1540 326 V424 L1514 456 H756 V210" />
    <path d="M782 230 H1442" />
    <path d="M782 432 H1512" />
    <path d="M780 210 V456 M858 210 V456 M936 210 V456 M1014 210 V456 M1092 210 V456 M1170 210 V456 M1248 210 V456 M1326 210 V456 M1404 210 V456" />
    <path d="M756 246 H1464" />
    <path d="M1464 210 V326" />
    <path d="M1540 326 V424" />
    <path d="M780 456 V472 H810 V456" />
    <path d="M936 456 V472 H966 V456" />
    <path d="M1092 456 V472 H1122 V456" />
    <path d="M1248 456 V472 H1278 V456" />
    <path d="M1404 456 V472 H1434 V456" />
    <path d="M848 210 V190 H880 V210" />
    <path d="M1004 210 V190 H1036 V210" />
    <path d="M1160 210 V190 H1192 V210" />
    <path d="M1316 210 V190 H1348 V210" />
    <path d="M1462 210 V190 H1494 V210" />

    <!-- Roll-off hoist, cable, rear latches -->
    <path d="M820 210 L846 160 H908 L1260 456" />
    <path d="M848 160 V456" />
    <path d="M900 160 V456" />
    <path d="M846 160 A28 28 0 1 0 902 160 A28 28 0 1 0 846 160" />
    <path d="M862 160 A12 12 0 1 0 886 160 A12 12 0 1 0 862 160" />
    <path d="M900 170 L1286 454" />
    <path d="M980 342 L1246 456" />
    <path d="M972 334 L1240 448" />
    <path d="M1228 448 L1268 420 H1292 V456" />
    <path d="M1248 456 A22 22 0 1 0 1292 456 A22 22 0 1 0 1248 456" />
    <path d="M1512 300 H1550 V442 H1512" />
    <path d="M1528 314 H1558 M1528 386 H1558" />
    <path d="M1548 326 H1584 V356 H1548" />
    <path d="M1548 392 H1584 V422 H1548" />
    <path d="M1524 456 A22 22 0 1 0 1568 456 A22 22 0 1 0 1524 456" />

    <!-- Rear tandem wheels -->
    <path d="M1162 500 A76 76 0 1 0 1314 500 A76 76 0 1 0 1162 500" />
    <path d="M1188 500 A50 50 0 1 0 1288 500 A50 50 0 1 0 1188 500" />
    <path d="M1222 500 A16 16 0 1 0 1254 500 A16 16 0 1 0 1222 500" />
    <path d="M1238 434 V456 M1238 544 V566 M1172 500 H1194 M1282 500 H1304 M1190 452 L1206 468 M1270 532 L1286 548 M1190 548 L1206 532 M1270 468 L1286 452" />
    <path d="M1362 500 A76 76 0 1 0 1514 500 A76 76 0 1 0 1362 500" />
    <path d="M1388 500 A50 50 0 1 0 1488 500 A50 50 0 1 0 1388 500" />
    <path d="M1422 500 A16 16 0 1 0 1454 500 A16 16 0 1 0 1422 500" />
    <path d="M1438 434 V456 M1438 544 V566 M1372 500 H1394 M1482 500 H1504 M1390 452 L1406 468 M1470 532 L1486 548 M1390 548 L1406 532 M1470 468 L1486 452" />
    <path d="M1132 456 Q1238 410 1344 456" />
    <path d="M1332 456 Q1438 410 1544 456" />
  </g>
</svg>
