<svg xmlns="http://www.w3.org/2000/svg" xmlns:cc="http://creativecommons.org/ns#" xmlns:dc="http://purl.org/dc/elements/1.1/" xmlns:rdf="http://www.w3.org/1999/02/22-rdf-syntax-ns#" xmlns:svg="http://www.w3.org/2000/svg" id="svg6792" viewBox="0 0 150 150"><defs><style>      .cls-1 {        fill: none;      }      .cls-1, .cls-2 {        stroke: #231f20;        stroke-miterlimit: 4;        stroke-width: .7px;      }      .cls-2 {        fill: #fd0;      }      .cls-3 {        fill: #231f20;        stroke-width: 0px;      }    </style></defs><rect id="rect6763" class="cls-2" x="22" y="22" width="106.1" height="106.1" transform="translate(-31.1 75) rotate(-45)"></rect><rect id="rect6769" class="cls-1" x="29.7" y="29.7" width="90.6" height="90.6" transform="translate(-31.1 75) rotate(-45)"></rect><path id="path3589" class="cls-3" d="M83,112.1c-.3.8-.8,1.6-1.7,2.2-.8.6-1.6,1-2.3,1.3v2.4c1.3-.4,2.5-1.1,3.4-2v10.1h2.7v-14h-2.2ZM66.5,112.3l-1.3,7.2,2.2.3c.6-.7,1.3-1,2-1s1.1.2,1.5.6c.4.4.6,1.1.6,1.9s-.2,1.6-.6,2c-.4.5-.9.7-1.4.7s-.9-.1-1.3-.5c-.4-.4-.6-.8-.7-1.4l-2.7.3c.2,1.2.6,2.1,1.4,2.8.8.7,1.9,1,3.1,1s2.9-.6,3.8-1.8c.7-.9,1-1.9,1-3.1s-.4-2.5-1.2-3.4c-.8-.9-1.9-1.3-3-1.3s-1.2.1-1.8.4l.4-2.4h5v-2.5h-7.1ZM74.8,123.3v2.7h2.7v-2.7h-2.7Z"></path><path id="path3572" class="cls-3" d="M30.4,64.5c-1.5,0-2.7.3-3.6.8s-1.6,1.2-2.1,2.2c-.5.9-.8,2-.9,3.3-.1,1.3-.2,2.7-.2,4.3s0,3,.2,4.3c.1,1.3.5,2.4.9,3.3.5.9,1.2,1.6,2.1,2.2s2.1.8,3.6.8,2.7-.3,3.6-.8,1.6-1.2,2-2.2c.5-.9.8-2,.9-3.3.1-1.3.2-2.7.2-4.3s0-3-.2-4.3c-.1-1.3-.5-2.4-.9-3.3-.5-.9-1.1-1.6-2-2.2s-2.1-.8-3.6-.8ZM38.8,64.9l4.6,10-5.1,10.2h4.5l2.9-6.9,2.9,6.9h4.6l-5-10.2,4.7-10h-4.4l-2.6,6.5-2.6-6.5h-4.5ZM55.1,64.9v20.2h4v-20.2h-4ZM62.3,64.9v20.2h6.4c1.4,0,2.5-.2,3.4-.6.9-.4,1.6-1.1,2.1-1.9.5-.8.9-1.9,1.1-3.2.2-1.3.3-2.8.3-4.6s0-2.8-.2-4c-.2-1.2-.5-2.2-1-3.1-.5-.9-1.2-1.5-2-2-.9-.5-2-.7-3.4-.7h-6.6ZM78.6,64.9v20.2h4v-20.2h-4ZM85.4,64.9v3.4h6.9l-7.4,13.9v3h12.2v-3.4h-7.6l7.5-13.8v-3.1h-11.6ZM99.3,64.9v20.2h11.5v-3.4h-7.5v-5.4h6.8v-3.3h-6.8v-4.8h7.2v-3.4h-11.3ZM112.8,64.9v20.2h4.1v-8.6h2.2c.8,0,1.5.2,1.8.7.4.5.6,1.1.6,1.9v3.9c.1.4.2.8.2,1.2,0,.4.2.7.4,1h4.4v-.2c-.4-.2-.6-.6-.7-1.2-.1-.6-.2-1.4-.2-2.5,0-1.1,0-2-.1-2.7,0-.7-.3-1.3-.5-1.8-.2-.5-.5-.9-.9-1.1-.4-.3-1-.4-1.7-.5h0c1.2-.3,2-.9,2.6-1.7.5-.9.8-2,.8-3.4s-.4-3-1.4-3.9c-.9-.9-2.3-1.3-4-1.3h-7.5ZM30.4,67.5c.6,0,1.1.2,1.4.4.4.3.6.7.8,1.3s.4,1.4.4,2.3c0,.9,0,2.1,0,3.4s0,2.5,0,3.5c0,1-.2,1.7-.4,2.3-.2.6-.5,1-.8,1.3s-.8.4-1.4.4-1.1-.2-1.5-.4-.6-.7-.8-1.3c-.2-.6-.3-1.4-.4-2.3,0-1-.1-2.1-.1-3.5s0-2.5.1-3.4c0-.9.2-1.7.4-2.3s.5-1.1.8-1.3c.4-.3.9-.4,1.5-.4ZM66.4,67.9h1.7c.8,0,1.4.1,1.9.4.5.3.8.7,1,1.3.2.6.4,1.3.4,2.2,0,.9.1,1.9.1,3s0,2.5-.1,3.4c0,.9-.2,1.7-.5,2.3-.3.6-.6,1-1,1.2-.4.2-1,.4-1.7.4h-1.8v-14.3ZM116.9,67.9h1.9c1.9,0,2.9,1,2.9,2.8s-.3,1.9-.8,2.3c-.5.5-1.3.7-2.3.7h-1.7v-5.9Z"></path><path id="path1360-4" class="cls-3" d="M74.8,15.8l-.9,1c-2.5,3.1,1,6.5-.5,9.6-.7-1.5-2.2-3.2-3.9-3.3v.2c0,0,0,0,.1,0,1.7,2.5.7,5.8-.9,8.1-.6-.8-1.4-2.1-2.5-2.2v.2c1.3,1.7.7,4.2-.2,6-.4.7-.2,1.7-.7,2.4-.7-.4-1.4-1-2.4-.9v.3c2.1,2.6,0,5.8.4,8.8.2.7.5,1.9,1.4,2,.3,3.5,2.4,6.6,5.4,8.2h-7.2v3h24.2v-3h-7.2c3.1-1.7,5.2-4.8,5.4-8.5.1,0,.2,0,.4,0,2.8-3.6-1.9-7.8,1.2-11.3-.7-.1-1.4.2-2,.4h-.1c.3-1.3.5-2.5.5-3.8-.2-2.1-.7-4.1-1.7-5.8-.1,1,0,2-.5,2.7.3-2.8-1.2-5.2-3.4-6.8-.1.9.7,1.8,0,2.7-.2-.9-.7-1.7-1.2-2.5-1.3-1.9-3.7-3.4-3.7-6,0-.6.2-1.1,0-1.5ZM76.3,27.7c.9,1.7-.5,3.4-.2,5.3.5,1.2,1.6,2.5,1.2,3.9,0,0,0,0,0,0-.7-.2-1.5-.3-2.2-.3s-.4,0-.6,0v-.8c-2.1-2.9.4-5.8,1.8-8.2ZM71.4,33.9c.3,1.1,1,2,1.2,3.1-.6.2-1.2.3-1.8.6.3-.9.2-2,.1-3,.1-.2,0-.6.4-.7ZM79.6,34c.9.8.8,2.6.4,3.7,0,0,0,.1,0,.2-.5-.3-1-.5-1.6-.7,0,0,0,0,0,0,.3-1,1-2,1.2-3.1ZM68.1,36.6c.3.6.4,1.5,1.1,1.9-.5.4-1,.7-1.4,1.2,0-1.1-.3-2.1.4-3.1ZM82.6,37.4c0,0,.1,0,.2.1v2.5c-.1,0-.1,0-.1.1-.4-.5-1-.9-1.5-1.3,0,0,0,0,.1,0,.4-.3.5-.7.9-1.1.1,0,.3-.3.4-.3ZM75,39.5c4.2,0,7.6,3.4,7.6,7.6s-3.4,7.6-7.6,7.6-7.6-3.4-7.6-7.6,3.4-7.6,7.6-7.6ZM65.4,41.3c.4,0,.3.5.7.6-.2.3-.4.7-.6,1.1h0c-.1-.6-.3-1.1-.1-1.7Z"></path></svg>