<?xml version="1.0" encoding="utf-8"?>
<!-- Generator: Adobe Illustrator 19.2.1, SVG Export Plug-In . SVG Version: 6.00 Build 0)  -->
<svg version="1.1" id="Layer_1" xmlns="http://www.w3.org/2000/svg" xmlns:xlink="http://www.w3.org/1999/xlink" x="0px" y="0px"
	 viewBox="0 0 300 550" style="enable-background:new 0 0 300 550;" xml:space="preserve">
<style type="text/css">
	.st0{fill:#FFFFFF;}
	.st1{fill:#7B4322;stroke:#7B4322;stroke-miterlimit:10;}
	.st2{fill:#323232;stroke:#323232;stroke-miterlimit:10;}
	.st3{fill:#464646;stroke:#464646;stroke-miterlimit:10;}
	.st4{fill:#646464;stroke:#646464;stroke-miterlimit:10;}
	.st5{fill:#FF7F3D;stroke:#FF7F3D;stroke-miterlimit:10;}
	.st6{fill:#FFFFFF;stroke:#FFFFFF;stroke-miterlimit:10;}
	.st7{fill:#646464;stroke:#7B4322;stroke-miterlimit:10;}
	.st8{fill:#464646;}
	.st9{fill:#E40011;}
	.st10{fill:none;stroke:#FFFFFF;stroke-width:2.5;stroke-linecap:round;stroke-miterlimit:10;}
</style>
<g>
	<path class="st0" d="M28.3,174.4l-4.8-4.8c-0.2-0.2-0.4-0.3-0.6-0.3c-0.2,0-0.4,0.1-0.6,0.3l-0.5,0.5c-0.1,0.1-0.3,0.3-0.3,0.6
		c0,0.2,0.1,0.4,0.3,0.6l3.7,3.7l-3.7,3.7c-0.2,0.2-0.3,0.4-0.3,0.6c0,0.3,0.2,0.5,0.3,0.6l0.5,0.5c0.2,0.2,0.4,0.3,0.6,0.3
		c0.1,0,0.4,0,0.6-0.3l4.8-4.8c0.2-0.2,0.3-0.4,0.3-0.6S28.4,174.6,28.3,174.4z"/>
	<path class="st1" d="M78.3,174.4l-4.8-4.8c-0.2-0.2-0.4-0.3-0.6-0.3c-0.2,0-0.4,0.1-0.6,0.3l-0.5,0.5c-0.1,0.1-0.3,0.3-0.3,0.6
		c0,0.2,0.1,0.4,0.3,0.6l3.7,3.7l-3.7,3.7c-0.2,0.2-0.3,0.4-0.3,0.6c0,0.3,0.2,0.5,0.3,0.6l0.5,0.5c0.2,0.2,0.4,0.3,0.6,0.3
		c0.1,0,0.4,0,0.6-0.3l4.8-4.8c0.2-0.2,0.3-0.4,0.3-0.6S78.4,174.6,78.3,174.4z"/>
	<path class="st2" d="M128.3,174.4l-4.8-4.8c-0.2-0.2-0.4-0.3-0.6-0.3c-0.2,0-0.4,0.1-0.6,0.3l-0.5,0.5c-0.1,0.1-0.3,0.3-0.3,0.6
		c0,0.2,0.1,0.4,0.3,0.6l3.7,3.7l-3.7,3.7c-0.2,0.2-0.3,0.4-0.3,0.6c0,0.3,0.2,0.5,0.3,0.6l0.5,0.5c0.2,0.2,0.4,0.3,0.6,0.3
		c0.1,0,0.4,0,0.6-0.3l4.8-4.8c0.2-0.2,0.3-0.4,0.3-0.6S128.4,174.6,128.3,174.4z"/>
	<path class="st3" d="M178.3,174.4l-4.8-4.8c-0.2-0.2-0.4-0.3-0.6-0.3c-0.2,0-0.4,0.1-0.6,0.3l-0.5,0.5c-0.1,0.1-0.3,0.3-0.3,0.6
		c0,0.2,0.1,0.4,0.3,0.6l3.7,3.7l-3.7,3.7c-0.2,0.2-0.3,0.4-0.3,0.6c0,0.3,0.2,0.5,0.3,0.6l0.5,0.5c0.2,0.2,0.4,0.3,0.6,0.3
		c0.1,0,0.4,0,0.6-0.3l4.8-4.8c0.2-0.2,0.3-0.4,0.3-0.6S178.4,174.6,178.3,174.4z"/>
	<path class="st4" d="M228.3,174.4l-4.8-4.8c-0.2-0.2-0.4-0.3-0.6-0.3c-0.2,0-0.4,0.1-0.6,0.3l-0.5,0.5c-0.1,0.1-0.3,0.3-0.3,0.6
		c0,0.2,0.1,0.4,0.3,0.6l3.7,3.7l-3.7,3.7c-0.2,0.2-0.3,0.4-0.3,0.6c0,0.3,0.2,0.5,0.3,0.6l0.5,0.5c0.2,0.2,0.4,0.3,0.6,0.3
		c0.1,0,0.4,0,0.6-0.3l4.8-4.8c0.2-0.2,0.3-0.4,0.3-0.6S228.4,174.6,228.3,174.4z"/>
	<path class="st5" d="M278.3,174.4l-4.8-4.8c-0.2-0.2-0.4-0.3-0.6-0.3c-0.2,0-0.4,0.1-0.6,0.3l-0.5,0.5c-0.1,0.1-0.3,0.3-0.3,0.6
		c0,0.2,0.1,0.4,0.3,0.6l3.7,3.7l-3.7,3.7c-0.2,0.2-0.3,0.4-0.3,0.6c0,0.3,0.2,0.5,0.3,0.6l0.5,0.5c0.2,0.2,0.4,0.3,0.6,0.3
		c0.1,0,0.4,0,0.6-0.3l4.8-4.8c0.2-0.2,0.3-0.4,0.3-0.6S278.4,174.6,278.3,174.4z"/>
</g>
<g>
	<g>
		<path class="st6" d="M23.3,229.2c-0.1,0-0.1,0-0.2-0.1l-0.4-0.4c-0.1,0-0.1-0.1-0.1-0.2c0-0.1,0-0.1,0.1-0.2l3.3-3.3l-3.3-3.3
			c-0.1-0.1-0.1-0.1-0.1-0.2c0-0.1,0-0.2,0.1-0.2l0.4-0.4c0.1-0.1,0.1-0.1,0.2-0.1c0.1,0,0.1,0,0.2,0.1l3.9,3.9
			c0.1,0.1,0.1,0.1,0.1,0.2c0,0.1,0,0.1-0.1,0.2l-3.9,3.9C23.4,229.2,23.3,229.2,23.3,229.2z"/>
	</g>
	<g>
		<path class="st1" d="M73.3,229.2c-0.1,0-0.1,0-0.2-0.1l-0.4-0.4c-0.1,0-0.1-0.1-0.1-0.2c0-0.1,0-0.1,0.1-0.2l3.3-3.3l-3.3-3.3
			c-0.1-0.1-0.1-0.1-0.1-0.2c0-0.1,0-0.2,0.1-0.2l0.4-0.4c0.1-0.1,0.1-0.1,0.2-0.1c0.1,0,0.1,0,0.2,0.1l3.9,3.9
			c0.1,0.1,0.1,0.1,0.1,0.2c0,0.1,0,0.1-0.1,0.2l-3.9,3.9C73.4,229.2,73.3,229.2,73.3,229.2z"/>
	</g>
	<g>
		<path class="st2" d="M123.3,229.2c-0.1,0-0.1,0-0.2-0.1l-0.4-0.4c-0.1,0-0.1-0.1-0.1-0.2c0-0.1,0-0.1,0.1-0.2l3.3-3.3l-3.3-3.3
			c-0.1-0.1-0.1-0.1-0.1-0.2c0-0.1,0-0.2,0.1-0.2l0.4-0.4c0.1-0.1,0.1-0.1,0.2-0.1c0.1,0,0.1,0,0.2,0.1l3.9,3.9
			c0.1,0.1,0.1,0.1,0.1,0.2c0,0.1,0,0.1-0.1,0.2l-3.9,3.9C123.4,229.2,123.3,229.2,123.3,229.2z"/>
	</g>
	<g>
		<path class="st3" d="M173.3,229.2c-0.1,0-0.1,0-0.2-0.1l-0.4-0.4c-0.1,0-0.1-0.1-0.1-0.2c0-0.1,0-0.1,0.1-0.2l3.3-3.3l-3.3-3.3
			c-0.1-0.1-0.1-0.1-0.1-0.2c0-0.1,0-0.2,0.1-0.2l0.4-0.4c0.1-0.1,0.1-0.1,0.2-0.1c0.1,0,0.1,0,0.2,0.1l3.9,3.9
			c0.1,0.1,0.1,0.1,0.1,0.2c0,0.1,0,0.1-0.1,0.2l-3.9,3.9C173.4,229.2,173.3,229.2,173.3,229.2z"/>
	</g>
	<g>
		<path class="st4" d="M223.3,229.2c-0.1,0-0.1,0-0.2-0.1l-0.4-0.4c-0.1,0-0.1-0.1-0.1-0.2c0-0.1,0-0.1,0.1-0.2l3.3-3.3l-3.3-3.3
			c-0.1-0.1-0.1-0.1-0.1-0.2c0-0.1,0-0.2,0.1-0.2l0.4-0.4c0.1-0.1,0.1-0.1,0.2-0.1c0.1,0,0.1,0,0.2,0.1l3.9,3.9
			c0.1,0.1,0.1,0.1,0.1,0.2c0,0.1,0,0.1-0.1,0.2l-3.9,3.9C223.4,229.2,223.3,229.2,223.3,229.2z"/>
	</g>
	<g>
		<path class="st5" d="M273.3,229.2c-0.1,0-0.1,0-0.2-0.1l-0.4-0.4c-0.1,0-0.1-0.1-0.1-0.2c0-0.1,0-0.1,0.1-0.2l3.3-3.3l-3.3-3.3
			c-0.1-0.1-0.1-0.1-0.1-0.2c0-0.1,0-0.2,0.1-0.2l0.4-0.4c0.1-0.1,0.1-0.1,0.2-0.1c0.1,0,0.1,0,0.2,0.1l3.9,3.9
			c0.1,0.1,0.1,0.1,0.1,0.2c0,0.1,0,0.1-0.1,0.2l-3.9,3.9C273.4,229.2,273.3,229.2,273.3,229.2z"/>
	</g>
</g>
<g>
	<path class="st5" d="M271.7,375.6l4.8,4.8c0.2,0.2,0.4,0.3,0.6,0.3c0.2,0,0.4-0.1,0.6-0.3l0.5-0.5c0.1-0.1,0.3-0.3,0.3-0.6
		c0-0.2-0.1-0.4-0.3-0.6l-3.7-3.7l3.7-3.7c0.2-0.2,0.3-0.4,0.3-0.6c0-0.3-0.2-0.5-0.3-0.6l-0.5-0.5c-0.2-0.2-0.4-0.3-0.6-0.3
		c-0.1,0-0.4,0-0.6,0.3l-4.8,4.8c-0.2,0.2-0.3,0.4-0.3,0.6S271.6,375.4,271.7,375.6z"/>
	<path class="st4" d="M221.7,375.6l4.8,4.8c0.2,0.2,0.4,0.3,0.6,0.3c0.2,0,0.4-0.1,0.6-0.3l0.5-0.5c0.1-0.1,0.3-0.3,0.3-0.6
		c0-0.2-0.1-0.4-0.3-0.6l-3.7-3.7l3.7-3.7c0.2-0.2,0.3-0.4,0.3-0.6c0-0.3-0.2-0.5-0.3-0.6l-0.5-0.5c-0.2-0.2-0.4-0.3-0.6-0.3
		c-0.1,0-0.4,0-0.6,0.3l-4.8,4.8c-0.2,0.2-0.3,0.4-0.3,0.6S221.6,375.4,221.7,375.6z"/>
	<path class="st3" d="M171.7,375.6l4.8,4.8c0.2,0.2,0.4,0.3,0.6,0.3c0.2,0,0.4-0.1,0.6-0.3l0.5-0.5c0.1-0.1,0.3-0.3,0.3-0.6
		c0-0.2-0.1-0.4-0.3-0.6l-3.7-3.7l3.7-3.7c0.2-0.2,0.3-0.4,0.3-0.6c0-0.3-0.2-0.5-0.3-0.6l-0.5-0.5c-0.2-0.2-0.4-0.3-0.6-0.3
		c-0.1,0-0.4,0-0.6,0.3l-4.8,4.8c-0.2,0.2-0.3,0.4-0.3,0.6S171.6,375.4,171.7,375.6z"/>
	<path class="st2" d="M121.7,375.6l4.8,4.8c0.2,0.2,0.4,0.3,0.6,0.3c0.2,0,0.4-0.1,0.6-0.3l0.5-0.5c0.1-0.1,0.3-0.3,0.3-0.6
		c0-0.2-0.1-0.4-0.3-0.6l-3.7-3.7l3.7-3.7c0.2-0.2,0.3-0.4,0.3-0.6c0-0.3-0.2-0.5-0.3-0.6l-0.5-0.5c-0.2-0.2-0.4-0.3-0.6-0.3
		c-0.1,0-0.4,0-0.6,0.3l-4.8,4.8c-0.2,0.2-0.3,0.4-0.3,0.6S121.6,375.4,121.7,375.6z"/>
	<path class="st1" d="M71.7,375.6l4.8,4.8c0.2,0.2,0.4,0.3,0.6,0.3c0.2,0,0.4-0.1,0.6-0.3l0.5-0.5c0.1-0.1,0.3-0.3,0.3-0.6
		c0-0.2-0.1-0.4-0.3-0.6l-3.7-3.7l3.7-3.7c0.2-0.2,0.3-0.4,0.3-0.6c0-0.3-0.2-0.5-0.3-0.6l-0.5-0.5c-0.2-0.2-0.4-0.3-0.6-0.3
		c-0.1,0-0.4,0-0.6,0.3l-4.8,4.8c-0.2,0.2-0.3,0.4-0.3,0.6S71.6,375.4,71.7,375.6z"/>
	<path class="st6" d="M21.7,375.6l4.8,4.8c0.2,0.2,0.4,0.3,0.6,0.3c0.2,0,0.4-0.1,0.6-0.3l0.5-0.5c0.1-0.1,0.3-0.3,0.3-0.6
		c0-0.2-0.1-0.4-0.3-0.6l-3.7-3.7l3.7-3.7c0.2-0.2,0.3-0.4,0.3-0.6c0-0.3-0.2-0.5-0.3-0.6l-0.5-0.5c-0.2-0.2-0.4-0.3-0.6-0.3
		c-0.1,0-0.4,0-0.6,0.3l-4.8,4.8c-0.2,0.2-0.3,0.4-0.3,0.6S21.6,375.4,21.7,375.6z"/>
</g>
<g>
	<g>
		<path class="st5" d="M276.7,420.8c0.1,0,0.1,0,0.2,0.1l0.4,0.4c0.1,0,0.1,0.1,0.1,0.2c0,0.1,0,0.1-0.1,0.2l-3.3,3.3l3.3,3.3
			c0.1,0.1,0.1,0.1,0.1,0.2c0,0.1,0,0.2-0.1,0.2l-0.4,0.4c-0.1,0.1-0.1,0.1-0.2,0.1c-0.1,0-0.1,0-0.2-0.1l-3.9-3.9
			c-0.1-0.1-0.1-0.1-0.1-0.2c0-0.1,0-0.1,0.1-0.2l3.9-3.9C276.6,420.8,276.7,420.8,276.7,420.8z"/>
	</g>
	<g>
		<path class="st4" d="M226.7,420.8c0.1,0,0.1,0,0.2,0.1l0.4,0.4c0.1,0,0.1,0.1,0.1,0.2c0,0.1,0,0.1-0.1,0.2l-3.3,3.3l3.3,3.3
			c0.1,0.1,0.1,0.1,0.1,0.2c0,0.1,0,0.2-0.1,0.2l-0.4,0.4c-0.1,0.1-0.1,0.1-0.2,0.1c-0.1,0-0.1,0-0.2-0.1l-3.9-3.9
			c-0.1-0.1-0.1-0.1-0.1-0.2c0-0.1,0-0.1,0.1-0.2l3.9-3.9C226.6,420.8,226.7,420.8,226.7,420.8z"/>
	</g>
	<g>
		<path class="st3" d="M176.7,420.8c0.1,0,0.1,0,0.2,0.1l0.4,0.4c0.1,0,0.1,0.1,0.1,0.2c0,0.1,0,0.1-0.1,0.2l-3.3,3.3l3.3,3.3
			c0.1,0.1,0.1,0.1,0.1,0.2c0,0.1,0,0.2-0.1,0.2l-0.4,0.4c-0.1,0.1-0.1,0.1-0.2,0.1c-0.1,0-0.1,0-0.2-0.1l-3.9-3.9
			c-0.1-0.1-0.1-0.1-0.1-0.2c0-0.1,0-0.1,0.1-0.2l3.9-3.9C176.6,420.8,176.7,420.8,176.7,420.8z"/>
	</g>
	<g>
		<path class="st2" d="M126.7,420.8c0.1,0,0.1,0,0.2,0.1l0.4,0.4c0.1,0,0.1,0.1,0.1,0.2c0,0.1,0,0.1-0.1,0.2l-3.3,3.3l3.3,3.3
			c0.1,0.1,0.1,0.1,0.1,0.2c0,0.1,0,0.2-0.1,0.2l-0.4,0.4c-0.1,0.1-0.1,0.1-0.2,0.1c-0.1,0-0.1,0-0.2-0.1l-3.9-3.9
			c-0.1-0.1-0.1-0.1-0.1-0.2c0-0.1,0-0.1,0.1-0.2l3.9-3.9C126.6,420.8,126.7,420.8,126.7,420.8z"/>
	</g>
	<g>
		<path class="st7" d="M76.7,420.8c0.1,0,0.1,0,0.2,0.1l0.4,0.4c0.1,0,0.1,0.1,0.1,0.2c0,0.1,0,0.1-0.1,0.2l-3.3,3.3l3.3,3.3
			c0.1,0.1,0.1,0.1,0.1,0.2c0,0.1,0,0.2-0.1,0.2l-0.4,0.4c-0.1,0.1-0.1,0.1-0.2,0.1c-0.1,0-0.1,0-0.2-0.1l-3.9-3.9
			c-0.1-0.1-0.1-0.1-0.1-0.2c0-0.1,0-0.1,0.1-0.2l3.9-3.9C76.6,420.8,76.7,420.8,76.7,420.8z"/>
	</g>
	<g>
		<path class="st6" d="M26.7,420.8c0.1,0,0.1,0,0.2,0.1l0.4,0.4c0.1,0,0.1,0.1,0.1,0.2c0,0.1,0,0.1-0.1,0.2l-3.3,3.3l3.3,3.3
			c0.1,0.1,0.1,0.1,0.1,0.2c0,0.1,0,0.2-0.1,0.2l-0.4,0.4c-0.1,0.1-0.1,0.1-0.2,0.1c-0.1,0-0.1,0-0.2-0.1l-3.9-3.9
			c-0.1-0.1-0.1-0.1-0.1-0.2c0-0.1,0-0.1,0.1-0.2l3.9-3.9C26.6,420.8,26.7,420.8,26.7,420.8z"/>
	</g>
</g>
<g>
	<g>
		<path class="st3" d="M179.2,126.7c0,0.1,0,0.1-0.1,0.2l-0.4,0.4c0,0.1-0.1,0.1-0.2,0.1c-0.1,0-0.1,0-0.2-0.1l-3.3-3.3l-3.3,3.3
			c-0.1,0.1-0.1,0.1-0.2,0.1c-0.1,0-0.2,0-0.2-0.1l-0.4-0.4c-0.1-0.1-0.1-0.1-0.1-0.2c0-0.1,0-0.1,0.1-0.2l3.9-3.9
			c0.1-0.1,0.1-0.1,0.2-0.1c0.1,0,0.1,0,0.2,0.1l3.9,3.9C179.2,126.6,179.2,126.7,179.2,126.7z"/>
	</g>
	<g>
		<path class="st4" d="M229.2,126.7c0,0.1,0,0.1-0.1,0.2l-0.4,0.4c0,0.1-0.1,0.1-0.2,0.1c-0.1,0-0.1,0-0.2-0.1l-3.3-3.3l-3.3,3.3
			c-0.1,0.1-0.1,0.1-0.2,0.1c-0.1,0-0.2,0-0.2-0.1l-0.4-0.4c-0.1-0.1-0.1-0.1-0.1-0.2c0-0.1,0-0.1,0.1-0.2l3.9-3.9
			c0.1-0.1,0.1-0.1,0.2-0.1c0.1,0,0.1,0,0.2,0.1l3.9,3.9C229.2,126.6,229.2,126.7,229.2,126.7z"/>
	</g>
	<g>
		<path class="st5" d="M279.2,126.7c0,0.1,0,0.1-0.1,0.2l-0.4,0.4c0,0.1-0.1,0.1-0.2,0.1c-0.1,0-0.1,0-0.2-0.1l-3.3-3.3l-3.3,3.3
			c-0.1,0.1-0.1,0.1-0.2,0.1c-0.1,0-0.2,0-0.2-0.1l-0.4-0.4c-0.1-0.1-0.1-0.1-0.1-0.2c0-0.1,0-0.1,0.1-0.2l3.9-3.9
			c0.1-0.1,0.1-0.1,0.2-0.1c0.1,0,0.1,0,0.2,0.1l3.9,3.9C279.2,126.6,279.2,126.7,279.2,126.7z"/>
	</g>
	<g>
		<path class="st2" d="M129.2,126.7c0,0.1,0,0.1-0.1,0.2l-0.4,0.4c0,0.1-0.1,0.1-0.2,0.1c-0.1,0-0.1,0-0.2-0.1l-3.3-3.3l-3.3,3.3
			c-0.1,0.1-0.1,0.1-0.2,0.1c-0.1,0-0.2,0-0.2-0.1l-0.4-0.4c-0.1-0.1-0.1-0.1-0.1-0.2c0-0.1,0-0.1,0.1-0.2l3.9-3.9
			c0.1-0.1,0.1-0.1,0.2-0.1c0.1,0,0.1,0,0.2,0.1l3.9,3.9C129.2,126.6,129.2,126.7,129.2,126.7z"/>
	</g>
	<g>
		<path class="st7" d="M79.2,126.7c0,0.1,0,0.1-0.1,0.2l-0.4,0.4c0,0.1-0.1,0.1-0.2,0.1c-0.1,0-0.1,0-0.2-0.1l-3.3-3.3l-3.3,3.3
			c-0.1,0.1-0.1,0.1-0.2,0.1c-0.1,0-0.2,0-0.2-0.1l-0.4-0.4c-0.1-0.1-0.1-0.1-0.1-0.2c0-0.1,0-0.1,0.1-0.2l3.9-3.9
			c0.1-0.1,0.1-0.1,0.2-0.1c0.1,0,0.1,0,0.2,0.1l3.9,3.9C79.2,126.6,79.2,126.7,79.2,126.7z"/>
	</g>
	<g>
		<path class="st6" d="M29.2,126.7c0,0.1,0,0.1-0.1,0.2l-0.4,0.4c0,0.1-0.1,0.1-0.2,0.1c-0.1,0-0.1,0-0.2-0.1l-3.3-3.3l-3.3,3.3
			c-0.1,0.1-0.1,0.1-0.2,0.1c-0.1,0-0.2,0-0.2-0.1l-0.4-0.4c-0.1-0.1-0.1-0.1-0.1-0.2c0-0.1,0-0.1,0.1-0.2l3.9-3.9
			c0.1-0.1,0.1-0.1,0.2-0.1c0.1,0,0.1,0,0.2,0.1l3.9,3.9C29.2,126.6,29.2,126.7,29.2,126.7z"/>
	</g>
</g>
<g>
	<path class="st6" d="M24.4,71.7l-4.8,4.8c-0.2,0.2-0.3,0.4-0.3,0.6c0,0.2,0.1,0.4,0.3,0.6l0.5,0.5c0.1,0.1,0.3,0.3,0.6,0.3
		c0.2,0,0.4-0.1,0.6-0.3l3.7-3.7l3.7,3.7c0.2,0.2,0.4,0.3,0.6,0.3c0.3,0,0.5-0.2,0.6-0.3l0.5-0.5c0.2-0.2,0.3-0.4,0.3-0.6
		c0-0.1,0-0.4-0.3-0.6l-4.8-4.8c-0.2-0.2-0.4-0.3-0.6-0.3S24.6,71.6,24.4,71.7z"/>
	<path class="st1" d="M74.4,71.7l-4.8,4.8c-0.2,0.2-0.3,0.4-0.3,0.6c0,0.2,0.1,0.4,0.3,0.6l0.5,0.5c0.1,0.1,0.3,0.3,0.6,0.3
		c0.2,0,0.4-0.1,0.6-0.3l3.7-3.7l3.7,3.7c0.2,0.2,0.4,0.3,0.6,0.3c0.3,0,0.5-0.2,0.6-0.3l0.5-0.5c0.2-0.2,0.3-0.4,0.3-0.6
		c0-0.1,0-0.4-0.3-0.6l-4.8-4.8c-0.2-0.2-0.4-0.3-0.6-0.3S74.6,71.6,74.4,71.7z"/>
	<path class="st2" d="M124.4,71.7l-4.8,4.8c-0.2,0.2-0.3,0.4-0.3,0.6c0,0.2,0.1,0.4,0.3,0.6l0.5,0.5c0.1,0.1,0.3,0.3,0.6,0.3
		c0.2,0,0.4-0.1,0.6-0.3l3.7-3.7l3.7,3.7c0.2,0.2,0.4,0.3,0.6,0.3c0.3,0,0.5-0.2,0.6-0.3l0.5-0.5c0.2-0.2,0.3-0.4,0.3-0.6
		c0-0.1,0-0.4-0.3-0.6l-4.8-4.8c-0.2-0.2-0.4-0.3-0.6-0.3S124.6,71.6,124.4,71.7z"/>
	<path class="st3" d="M174.4,71.7l-4.8,4.8c-0.2,0.2-0.3,0.4-0.3,0.6c0,0.2,0.1,0.4,0.3,0.6l0.5,0.5c0.1,0.1,0.3,0.3,0.6,0.3
		c0.2,0,0.4-0.1,0.6-0.3l3.7-3.7l3.7,3.7c0.2,0.2,0.4,0.3,0.6,0.3c0.3,0,0.5-0.2,0.6-0.3l0.5-0.5c0.2-0.2,0.3-0.4,0.3-0.6
		c0-0.1,0-0.4-0.3-0.6l-4.8-4.8c-0.2-0.2-0.4-0.3-0.6-0.3S174.6,71.6,174.4,71.7z"/>
	<path class="st4" d="M224.4,71.7l-4.8,4.8c-0.2,0.2-0.3,0.4-0.3,0.6c0,0.2,0.1,0.4,0.3,0.6l0.5,0.5c0.1,0.1,0.3,0.3,0.6,0.3
		c0.2,0,0.4-0.1,0.6-0.3l3.7-3.7l3.7,3.7c0.2,0.2,0.4,0.3,0.6,0.3c0.3,0,0.5-0.2,0.6-0.3l0.5-0.5c0.2-0.2,0.3-0.4,0.3-0.6
		c0-0.1,0-0.4-0.3-0.6l-4.8-4.8c-0.2-0.2-0.4-0.3-0.6-0.3S224.6,71.6,224.4,71.7z"/>
	<path class="st5" d="M274.4,71.7l-4.8,4.8c-0.2,0.2-0.3,0.4-0.3,0.6c0,0.2,0.1,0.4,0.3,0.6l0.5,0.5c0.1,0.1,0.3,0.3,0.6,0.3
		c0.2,0,0.4-0.1,0.6-0.3l3.7-3.7l3.7,3.7c0.2,0.2,0.4,0.3,0.6,0.3c0.3,0,0.5-0.2,0.6-0.3l0.5-0.5c0.2-0.2,0.3-0.4,0.3-0.6
		c0-0.1,0-0.4-0.3-0.6l-4.8-4.8c-0.2-0.2-0.4-0.3-0.6-0.3S274.6,71.6,274.4,71.7z"/>
</g>
<g>
	<g>
		<path class="st3" d="M179.1,323.4l-3.9,3.9c-0.1,0.1-0.1,0.1-0.2,0.1c-0.1,0-0.1,0-0.2-0.1l-3.9-3.9c-0.1-0.1-0.1-0.1-0.1-0.2
			c0-0.1,0-0.1,0.1-0.2l0.4-0.4c0-0.1,0.1-0.1,0.2-0.1c0.1,0,0.1,0,0.2,0.1l3.3,3.3l3.3-3.3c0.1-0.1,0.1-0.1,0.2-0.1
			c0.1,0,0.2,0,0.2,0.1l0.4,0.4c0.1,0.1,0.1,0.1,0.1,0.2C179.2,323.3,179.2,323.4,179.1,323.4z"/>
	</g>
	<g>
		<path class="st4" d="M229.1,323.4l-3.9,3.9c-0.1,0.1-0.1,0.1-0.2,0.1c-0.1,0-0.1,0-0.2-0.1l-3.9-3.9c-0.1-0.1-0.1-0.1-0.1-0.2
			c0-0.1,0-0.1,0.1-0.2l0.4-0.4c0-0.1,0.1-0.1,0.2-0.1c0.1,0,0.1,0,0.2,0.1l3.3,3.3l3.3-3.3c0.1-0.1,0.1-0.1,0.2-0.1
			c0.1,0,0.2,0,0.2,0.1l0.4,0.4c0.1,0.1,0.1,0.1,0.1,0.2C229.2,323.3,229.2,323.4,229.1,323.4z"/>
	</g>
	<g>
		<path class="st5" d="M279.1,323.4l-3.9,3.9c-0.1,0.1-0.1,0.1-0.2,0.1c-0.1,0-0.1,0-0.2-0.1l-3.9-3.9c-0.1-0.1-0.1-0.1-0.1-0.2
			c0-0.1,0-0.1,0.1-0.2l0.4-0.4c0-0.1,0.1-0.1,0.2-0.1c0.1,0,0.1,0,0.2,0.1l3.3,3.3l3.3-3.3c0.1-0.1,0.1-0.1,0.2-0.1
			c0.1,0,0.2,0,0.2,0.1l0.4,0.4c0.1,0.1,0.1,0.1,0.1,0.2C279.2,323.3,279.2,323.4,279.1,323.4z"/>
	</g>
	<g>
		<path class="st2" d="M129.1,323.4l-3.9,3.9c-0.1,0.1-0.1,0.1-0.2,0.1c-0.1,0-0.1,0-0.2-0.1l-3.9-3.9c-0.1-0.1-0.1-0.1-0.1-0.2
			c0-0.1,0-0.1,0.1-0.2l0.4-0.4c0-0.1,0.1-0.1,0.2-0.1c0.1,0,0.1,0,0.2,0.1l3.3,3.3l3.3-3.3c0.1-0.1,0.1-0.1,0.2-0.1
			c0.1,0,0.2,0,0.2,0.1l0.4,0.4c0.1,0.1,0.1,0.1,0.1,0.2C129.2,323.3,129.2,323.4,129.1,323.4z"/>
	</g>
	<g>
		<path class="st7" d="M79.1,323.4l-3.9,3.9c-0.1,0.1-0.1,0.1-0.2,0.1c-0.1,0-0.1,0-0.2-0.1l-3.9-3.9c-0.1-0.1-0.1-0.1-0.1-0.2
			c0-0.1,0-0.1,0.1-0.2l0.4-0.4c0-0.1,0.1-0.1,0.2-0.1c0.1,0,0.1,0,0.2,0.1l3.3,3.3l3.3-3.3c0.1-0.1,0.1-0.1,0.2-0.1
			c0.1,0,0.2,0,0.2,0.1l0.4,0.4c0.1,0.1,0.1,0.1,0.1,0.2C79.2,323.3,79.2,323.4,79.1,323.4z"/>
	</g>
	<g>
		<path class="st6" d="M29.1,323.4l-3.9,3.9c-0.1,0.1-0.1,0.1-0.2,0.1c-0.1,0-0.1,0-0.2-0.1l-3.9-3.9c-0.1-0.1-0.1-0.1-0.1-0.2
			c0-0.1,0-0.1,0.1-0.2l0.4-0.4c0-0.1,0.1-0.1,0.2-0.1c0.1,0,0.1,0,0.2,0.1l3.3,3.3l3.3-3.3c0.1-0.1,0.1-0.1,0.2-0.1
			c0.1,0,0.2,0,0.2,0.1l0.4,0.4c0.1,0.1,0.1,0.1,0.1,0.2C29.2,323.3,29.2,323.4,29.1,323.4z"/>
	</g>
</g>
<g>
	<path class="st6" d="M24.4,278.3l-4.8-4.8c-0.2-0.2-0.3-0.4-0.3-0.6c0-0.2,0.1-0.4,0.3-0.6l0.5-0.5c0.1-0.1,0.3-0.3,0.6-0.3
		c0.2,0,0.4,0.1,0.6,0.3l3.7,3.7l3.7-3.7c0.2-0.2,0.4-0.3,0.6-0.3c0.3,0,0.5,0.2,0.6,0.3l0.5,0.5c0.2,0.2,0.3,0.4,0.3,0.6
		c0,0.1,0,0.4-0.3,0.6l-4.8,4.8c-0.2,0.2-0.4,0.3-0.6,0.3S24.6,278.4,24.4,278.3z"/>
	<path class="st1" d="M74.4,278.3l-4.8-4.8c-0.2-0.2-0.3-0.4-0.3-0.6c0-0.2,0.1-0.4,0.3-0.6l0.5-0.5c0.1-0.1,0.3-0.3,0.6-0.3
		c0.2,0,0.4,0.1,0.6,0.3l3.7,3.7l3.7-3.7c0.2-0.2,0.4-0.3,0.6-0.3c0.3,0,0.5,0.2,0.6,0.3l0.5,0.5c0.2,0.2,0.3,0.4,0.3,0.6
		c0,0.1,0,0.4-0.3,0.6l-4.8,4.8c-0.2,0.2-0.4,0.3-0.6,0.3S74.6,278.4,74.4,278.3z"/>
	<path class="st2" d="M124.4,278.3l-4.8-4.8c-0.2-0.2-0.3-0.4-0.3-0.6c0-0.2,0.1-0.4,0.3-0.6l0.5-0.5c0.1-0.1,0.3-0.3,0.6-0.3
		c0.2,0,0.4,0.1,0.6,0.3l3.7,3.7l3.7-3.7c0.2-0.2,0.4-0.3,0.6-0.3c0.3,0,0.5,0.2,0.6,0.3l0.5,0.5c0.2,0.2,0.3,0.4,0.3,0.6
		c0,0.1,0,0.4-0.3,0.6l-4.8,4.8c-0.2,0.2-0.4,0.3-0.6,0.3S124.6,278.4,124.4,278.3z"/>
	<path class="st3" d="M174.4,278.3l-4.8-4.8c-0.2-0.2-0.3-0.4-0.3-0.6c0-0.2,0.1-0.4,0.3-0.6l0.5-0.5c0.1-0.1,0.3-0.3,0.6-0.3
		c0.2,0,0.4,0.1,0.6,0.3l3.7,3.7l3.7-3.7c0.2-0.2,0.4-0.3,0.6-0.3c0.3,0,0.5,0.2,0.6,0.3l0.5,0.5c0.2,0.2,0.3,0.4,0.3,0.6
		c0,0.1,0,0.4-0.3,0.6l-4.8,4.8c-0.2,0.2-0.4,0.3-0.6,0.3S174.6,278.4,174.4,278.3z"/>
	<path class="st4" d="M224.4,278.3l-4.8-4.8c-0.2-0.2-0.3-0.4-0.3-0.6c0-0.2,0.1-0.4,0.3-0.6l0.5-0.5c0.1-0.1,0.3-0.3,0.6-0.3
		c0.2,0,0.4,0.1,0.6,0.3l3.7,3.7l3.7-3.7c0.2-0.2,0.4-0.3,0.6-0.3c0.3,0,0.5,0.2,0.6,0.3l0.5,0.5c0.2,0.2,0.3,0.4,0.3,0.6
		c0,0.1,0,0.4-0.3,0.6l-4.8,4.8c-0.2,0.2-0.4,0.3-0.6,0.3S224.6,278.4,224.4,278.3z"/>
	<path class="st5" d="M274.4,278.3l-4.8-4.8c-0.2-0.2-0.3-0.4-0.3-0.6c0-0.2,0.1-0.4,0.3-0.6l0.5-0.5c0.1-0.1,0.3-0.3,0.6-0.3
		c0.2,0,0.4,0.1,0.6,0.3l3.7,3.7l3.7-3.7c0.2-0.2,0.4-0.3,0.6-0.3c0.3,0,0.5,0.2,0.6,0.3l0.5,0.5c0.2,0.2,0.3,0.4,0.3,0.6
		c0,0.1,0,0.4-0.3,0.6l-4.8,4.8c-0.2,0.2-0.4,0.3-0.6,0.3S274.6,278.4,274.4,278.3z"/>
</g>
<g>
	<path class="st6" d="M22.1,32c-0.1,0-0.2,0-0.3-0.1l-0.7-0.7c-0.1,0-0.1-0.1-0.1-0.3c0-0.1,0-0.2,0.1-0.3l5.5-5.5l-5.5-5.5
		c-0.1-0.1-0.1-0.2-0.1-0.3c0-0.2,0-0.3,0.1-0.3l0.7-0.7C21.9,18,22,18,22.1,18c0.1,0,0.2,0,0.3,0.1l6.5,6.5
		c0.1,0.1,0.1,0.2,0.1,0.3c0,0.1,0,0.2-0.1,0.3l-6.5,6.5C22.3,32,22.2,32,22.1,32z"/>
</g>
<g>
	<path class="st1" d="M72.1,32c-0.1,0-0.2,0-0.3-0.1l-0.7-0.7c-0.1,0-0.1-0.1-0.1-0.3c0-0.1,0-0.2,0.1-0.3l5.5-5.5l-5.5-5.5
		c-0.1-0.1-0.1-0.2-0.1-0.3c0-0.2,0-0.3,0.1-0.3l0.7-0.7C71.9,18,72,18,72.1,18c0.1,0,0.2,0,0.3,0.1l6.5,6.5
		c0.1,0.1,0.1,0.2,0.1,0.3c0,0.1,0,0.2-0.1,0.3l-6.5,6.5C72.3,32,72.2,32,72.1,32z"/>
</g>
<g>
	<path class="st2" d="M122.1,32c-0.1,0-0.2,0-0.3-0.1l-0.7-0.7c-0.1,0-0.1-0.1-0.1-0.3c0-0.1,0-0.2,0.1-0.3l5.5-5.5l-5.5-5.5
		c-0.1-0.1-0.1-0.2-0.1-0.3c0-0.2,0-0.3,0.1-0.3l0.7-0.7c0.1-0.1,0.2-0.1,0.3-0.1c0.1,0,0.2,0,0.3,0.1l6.5,6.5
		c0.1,0.1,0.1,0.2,0.1,0.3c0,0.1,0,0.2-0.1,0.3l-6.5,6.5C122.3,32,122.2,32,122.1,32z"/>
</g>
<g>
	<path class="st3" d="M172.1,32c-0.1,0-0.2,0-0.3-0.1l-0.7-0.7c-0.1,0-0.1-0.1-0.1-0.3c0-0.1,0-0.2,0.1-0.3l5.5-5.5l-5.5-5.5
		c-0.1-0.1-0.1-0.2-0.1-0.3c0-0.2,0-0.3,0.1-0.3l0.7-0.7c0.1-0.1,0.2-0.1,0.3-0.1c0.1,0,0.2,0,0.3,0.1l6.5,6.5
		c0.1,0.1,0.1,0.2,0.1,0.3c0,0.1,0,0.2-0.1,0.3l-6.5,6.5C172.3,32,172.2,32,172.1,32z"/>
</g>
<g>
	<path class="st4" d="M222.1,32c-0.1,0-0.2,0-0.3-0.1l-0.7-0.7c-0.1,0-0.1-0.1-0.1-0.3c0-0.1,0-0.2,0.1-0.3l5.5-5.5l-5.5-5.5
		c-0.1-0.1-0.1-0.2-0.1-0.3c0-0.2,0-0.3,0.1-0.3l0.7-0.7c0.1-0.1,0.2-0.1,0.3-0.1c0.1,0,0.2,0,0.3,0.1l6.5,6.5
		c0.1,0.1,0.1,0.2,0.1,0.3c0,0.1,0,0.2-0.1,0.3l-6.5,6.5C222.3,32,222.2,32,222.1,32z"/>
</g>
<g>
	<path class="st5" d="M271.7,33c-0.1,0-0.3-0.1-0.4-0.2l-0.8-0.8c-0.1,0-0.2-0.1-0.2-0.3c0-0.1,0.1-0.3,0.2-0.4l6.3-6.3l-6.3-6.3
		c-0.1-0.1-0.2-0.2-0.2-0.4c0-0.2,0.1-0.3,0.2-0.3l0.8-0.8c0.1-0.1,0.2-0.2,0.4-0.2c0.1,0,0.2,0.1,0.3,0.2l7.4,7.4
		c0.1,0.1,0.2,0.2,0.2,0.4c0,0.1-0.1,0.3-0.2,0.4l-7.4,7.4C271.9,32.9,271.8,33,271.7,33z"/>
</g>
<g>
	<g>
		<path class="st8" d="M82,480.9c0,0.3-0.1,0.5-0.3,0.8c-0.2,0.2-0.5,0.3-0.8,0.3c-0.3,0-0.5-0.1-0.8-0.3l-2.9-2.9
			c-1,0.7-2.1,1.1-3.4,1.1c-0.8,0-1.6-0.2-2.3-0.5c-0.7-0.3-1.4-0.7-1.9-1.3c-0.5-0.5-1-1.1-1.3-1.9c-0.3-0.8-0.5-1.5-0.5-2.3
			c0-0.8,0.2-1.5,0.5-2.3c0.3-0.8,0.8-1.4,1.3-1.9c0.5-0.5,1.2-1,1.9-1.3c0.7-0.3,1.5-0.4,2.3-0.4c0.8,0,1.6,0.1,2.3,0.4
			c0.8,0.4,1.4,0.8,1.9,1.3c0.5,0.5,0.9,1.1,1.3,1.9c0.3,0.7,0.5,1.5,0.5,2.3c0,1.2-0.4,2.4-1.1,3.4l2.9,2.9
			C81.9,480.4,82,480.6,82,480.9z M77.7,473.9c0-1.1-0.4-2-1.1-2.7c-0.7-0.7-1.6-1.1-2.7-1.1c-1,0-1.9,0.4-2.6,1.1
			c-0.7,0.7-1.1,1.6-1.1,2.7c0,1,0.4,1.9,1.1,2.6c0.7,0.7,1.6,1.1,2.6,1.1c1,0,1.9-0.4,2.7-1.1C77.3,475.8,77.7,475,77.7,473.9z"/>
	</g>
</g>
<g>
	<g>
		<path class="st0" d="M32,480.9c0,0.3-0.1,0.5-0.3,0.8c-0.2,0.2-0.5,0.3-0.8,0.3c-0.3,0-0.5-0.1-0.8-0.3l-2.9-2.9
			c-1,0.7-2.1,1.1-3.4,1.1c-0.8,0-1.6-0.2-2.3-0.5c-0.7-0.3-1.4-0.7-1.9-1.3c-0.5-0.5-1-1.1-1.3-1.9c-0.3-0.8-0.5-1.5-0.5-2.3
			c0-0.8,0.2-1.5,0.5-2.3c0.3-0.8,0.8-1.4,1.3-1.9c0.5-0.5,1.2-1,1.9-1.3c0.7-0.3,1.5-0.4,2.3-0.4c0.8,0,1.6,0.1,2.3,0.4
			c0.8,0.4,1.4,0.8,1.9,1.3c0.5,0.5,0.9,1.1,1.3,1.9c0.3,0.7,0.5,1.5,0.5,2.3c0,1.2-0.4,2.4-1.1,3.4l2.9,2.9
			C31.9,480.4,32,480.6,32,480.9z M27.7,473.9c0-1.1-0.4-2-1.1-2.7c-0.7-0.7-1.6-1.1-2.7-1.1c-1,0-1.9,0.4-2.6,1.1
			c-0.7,0.7-1.1,1.6-1.1,2.7c0,1,0.4,1.9,1.1,2.6c0.7,0.7,1.6,1.1,2.6,1.1c1,0,1.9-0.4,2.7-1.1C27.3,475.8,27.7,475,27.7,473.9z"/>
	</g>
</g>
<g>
	<g>
		<path class="st9" d="M34.5,518c0.3,0.3,0.5,0.6,0.7,1c0.2,0.3,0.2,0.7,0.2,1.2v15.7c0,0.4-0.1,0.7-0.4,0.9
			c-0.3,0.3-0.6,0.4-0.9,0.4H15.9c-0.3,0-0.7-0.1-0.9-0.4c-0.3-0.2-0.4-0.5-0.4-0.9v-21.8c0-0.4,0.1-0.7,0.4-0.9
			c0.3-0.3,0.6-0.4,0.9-0.4H28c0.4,0,0.8,0.1,1.2,0.3c0.5,0.2,0.9,0.4,1,0.6L34.5,518z M33.7,535.4v-13.9H28c-0.3,0-0.6-0.1-0.9-0.4
			c-0.3-0.2-0.4-0.5-0.4-1v-5.6H16.3v20.8H33.7z M26.7,527.4c0.2,0.2,0.6,0.4,1.1,0.8c0.7-0.1,1.2-0.1,1.6-0.1
			c1.3,0,2.1,0.2,2.4,0.7c0.1,0.2,0.1,0.4,0,0.7h0v0c0,0.3-0.4,0.5-1,0.5c-0.4,0-1-0.1-1.5-0.3c-0.6-0.2-1.2-0.4-1.8-0.7
			c-2,0.2-3.7,0.6-5.3,1.1c-1.4,2.4-2.5,3.6-3.3,3.6c-0.1,0-0.2,0-0.4-0.1l-0.3-0.2l0,0c-0.1-0.1-0.1-0.3-0.1-0.5
			c0.1-0.4,0.3-0.8,0.8-1.2c0.4-0.4,1-0.9,1.8-1.3c0.1-0.1,0.2-0.1,0.3,0.1c0,0,0,0,0,0c0.4-0.7,0.9-1.6,1.4-2.7
			c0.6-1.2,1.1-2.4,1.4-3.6c-0.2-0.8-0.3-1.5-0.4-2.2c0-0.7,0-1.2,0.1-1.7c0.1-0.4,0.3-0.6,0.6-0.6h0.3c0.2,0,0.3,0.1,0.5,0.2
			c0.2,0.2,0.2,0.5,0.1,0.9l0,0.1v0.1v0.4c0,1.2-0.1,2.1-0.2,2.6C25.3,525.6,25.9,526.7,26.7,527.4z M18.9,532.9
			c0.4-0.2,1.1-0.9,1.9-2.1c-0.4,0.3-0.8,0.7-1.2,1.1C19.3,532.4,19,532.7,18.9,532.9z M22.6,529.4c1.3-0.5,2.6-0.9,3.9-1.1
			l-0.2-0.1l-0.2-0.2c-0.7-0.6-1.3-1.4-1.8-2.4c-0.2,0.7-0.6,1.6-1.1,2.7c-0.1,0.2-0.2,0.4-0.4,0.6
			C22.7,529.2,22.7,529.4,22.6,529.4z M24.3,520.5c-0.1,0.4-0.1,1,0,1.8c0-0.2,0-0.3,0.1-0.6c0-0.2,0-0.4,0.1-0.6c0,0,0-0.1,0-0.1h0
			v0C24.5,520.7,24.4,520.5,24.3,520.5L24.3,520.5L24.3,520.5z M28.5,514.7v5.1h5.1c-0.1-0.3-0.2-0.5-0.3-0.5L29,515
			C28.9,514.9,28.8,514.8,28.5,514.7z M31.4,529.2c-0.2-0.2-0.8-0.3-1.9-0.3c0.8,0.3,1.3,0.4,1.7,0.4L31.4,529.2
			C31.4,529.2,31.4,529.2,31.4,529.2z"/>
	</g>
</g>
<g>
	<g>
		<g>
			<g>
				<line class="st10" x1="135" y1="467" x2="115" y2="467"/>
			</g>
		</g>
	</g>
	<g>
		<g>
			<g>
				<line class="st10" x1="135" y1="483" x2="115" y2="483"/>
			</g>
		</g>
	</g>
	<g>
		<g>
			<g>
				<line class="st10" x1="135" y1="475" x2="115" y2="475"/>
			</g>
		</g>
	</g>
</g>
<path class="st0" d="M177.3,475l4.4-4.4c0.2-0.2,0.3-0.5,0.3-0.8c0-0.4-0.2-0.7-0.4-0.9l-0.6-0.6c-0.2-0.2-0.5-0.3-0.8-0.3
	c-0.2,0-0.5,0.1-0.8,0.3l-4.4,4.4l-4.4-4.4c-0.3-0.3-0.6-0.3-0.8-0.3c-0.3,0-0.6,0.1-0.8,0.3l-0.6,0.6c-0.2,0.2-0.4,0.4-0.4,0.9
	c0,0.3,0.1,0.6,0.3,0.8l4.4,4.4l-4.4,4.4c-0.2,0.2-0.3,0.5-0.3,0.8c0,0.4,0.2,0.7,0.4,0.9l0.5,0.6c0.2,0.2,0.5,0.4,0.9,0.4
	c0.2,0,0.5-0.1,0.8-0.3l4.4-4.4l4.4,4.4c0.3,0.3,0.6,0.3,0.8,0.3c0.3,0,0.6-0.1,0.9-0.4l0.5-0.6c0.2-0.2,0.4-0.4,0.4-0.9
	c0-0.3-0.1-0.6-0.3-0.8L177.3,475z"/>
</svg>
